#!OML:ASF X:\für Bonn\!DataBase\2005_08_12_Daniel\c3d\Daniel.ASF
:FULLY-SPECIFIED
:DEGREES
110
root 1.88246 17.9293 -16.6987 -4.10446 206.098 -348.159
lowerback 5.56936 -7.29859 2.54765
upperback 2.45774 -9.67598 0.792331
thorax -0.828594 -4.8658 0.0293816
lowerneck -2.78155 14.9545 -0.72791
upperneck 2.95134 20.0985 -11.7303
head 2.70695 9.55709 -2.89492
rclavicle 3.50855e-014 -2.38542e-014
rhumerus -69.3171 2.80572 -75.3627
rradius 37.5306
rwrist 10.7916
rhand -32.494 32.5039
rfingers 7.12502
rthumb -5.72574 2.60131
lclavicle 3.50855e-014 -2.38542e-014
lhumerus -47.9859 -9.6953 91.4312
lradius 125.513
lwrist 14.9791
lhand -12.3379 -18.5468
lfingers 7.12502
lthumb 13.7314 10.9801
rfemur -27.1917 15.9119 16.8096
rtibia 37.7584
rfoot -4.55853 -7.92933
rtoes -15.808
lfemur 6.16123 -1.63861 -25.1022
ltibia 43.5177
lfoot 2.06542 -1.44473
ltoes 0.120355
111
root 1.75948 17.9507 -17.0104 -3.96378 206.862 -348.153
lowerback 5.0499 -7.41134 2.80779
upperback 2.34308 -9.82063 0.79565
thorax -0.706065 -4.93243 -0.156513
lowerneck -2.6624 14.8973 -0.566472
upperneck 3.06006 20.0243 -11.786
head 2.74455 9.51818 -2.94599
rclavicle -9.28324e-014 1.59028e-014
rhumerus -69.8508 3.04284 -75.1836
rradius 37.5791
rwrist 10.9356
rhand -32.2643 32.1438
rfingers 7.12502
rthumb -5.50387 2.2353
lclavicle -9.28324e-014 1.59028e-014
lhumerus -48.5525 -10.7109 91.3065
lradius 125.353
lwrist 14.8898
lhand -12.4287 -18.8101
lfingers 7.12502
lthumb 13.6439 10.7228
rfemur -27.2743 17.3409 16.0265
rtibia 35.0807
rfoot -4.68185 -8.97489
rtoes -15.6797
lfemur 6.30803 -1.73423 -24.8879
ltibia 44.2965
lfoot 2.71301 -1.01813
ltoes 0.196562
112
root 1.63831 17.9556 -17.3173 -3.93738 207.59 -348.17
lowerback 4.69418 -7.50742 3.05491
upperback 2.26809 -9.94358 0.760803
thorax -0.63778 -4.98939 -0.356047
lowerneck -2.48223 14.8156 -0.481291
upperneck 2.92799 19.8942 -11.7729
head 2.66741 9.47198 -2.98071
rclavicle -8.84592e-015 2.06736e-014
rhumerus -70.255 3.25125 -75.026
rradius 37.5681
rwrist 11.1819
rhand -32.1122 31.7888
rfingers 7.12502
rthumb -5.35707 1.87656
lclavicle -8.84592e-015 2.06736e-014
lhumerus -49.1021 -11.6942 91.1975
lradius 125.219
lwrist 14.8728
lhand -12.6222 -18.795
lfingers 7.12502
lthumb 13.4574 10.7503
rfemur -27.3734 18.4203 15.304
rtibia 32.8639
rfoot -4.68965 -9.58966
rtoes -14.3157
lfemur 6.50957 -1.75695 -24.6878
ltibia 45.175
lfoot 3.18589 -0.614826
ltoes 0.461859
113
root 1.51439 17.9395 -17.6221 -3.98512 208.263 -348.286
lowerback 4.44439 -7.5659 3.20767
upperback 2.23913 -10.0219 0.736629
thorax -0.562225 -5.02567 -0.488037
lowerneck -2.26713 14.6979 -0.618436
upperneck 2.62215 19.697 -11.6972
head 2.48772 9.40183 -2.97624
rclavicle -1.31198e-014 -4.77083e-015
rhumerus -70.5203 3.45658 -74.7817
rradius 37.6195
rwrist 11.3843
rhand -31.7926 31.4096
rfingers 7.12502
rthumb -5.04847 1.48979
lclavicle -1.31198e-014 -4.77083e-015
lhumerus -49.6552 -12.5434 91.2778
lradius 125.096
lwrist 14.7898
lhand -12.7482 -18.586
lfingers 7.12502
lthumb 13.3359 10.9673
rfemur -27.4807 19.1483 14.5718
rtibia 31.116
rfoot -4.53819 -10.0381
rtoes -12.7117
lfemur 6.76953 -1.79773 -24.6365
ltibia 46.1933
lfoot 3.43422 -0.165294
ltoes 1.01721
114
root 1.39189 17.9144 -17.9283 -4.1741 208.91 -348.403
lowerback 4.37805 -7.61776 3.2689
upperback 2.23826 -10.091 0.724108
thorax -0.541348 -5.05936 -0.537438
lowerneck -2.08287 14.5844 -0.791707
upperneck 2.28562 19.5043 -11.594
head 2.2975 9.33474 -2.95577
rclavicle 6.83819e-014 3.65764e-014
rhumerus -70.7587 3.7437 -74.655
rradius 37.756
rwrist 11.4199
rhand -31.4654 31.0604
rfingers 7.12502
rthumb -4.73258 1.13327
lclavicle 6.83819e-014 3.65764e-014
lhumerus -50.1201 -13.3615 91.3898
lradius 124.854
lwrist 14.6733
lhand -12.9578 -18.3632
lfingers 7.12502
lthumb 13.1338 11.2032
rfemur -27.5293 19.979 13.8878
rtibia 29.7611
rfoot -4.05512 -10.7196
rtoes -10.0836
lfemur 7.03558 -1.84136 -24.6088
ltibia 47.4342
lfoot 3.43974 0.224841
ltoes 1.30112
